<?xml version="1.0" standalone="no"?>
<!DOCTYPE svg PUBLIC "-//W3C//DTD SVG 20010904//EN"
 "http://www.w3.org/TR/2001/REC-SVG-20010904/DTD/svg10.dtd">
<svg version="1.0" xmlns="http://www.w3.org/2000/svg"
 width="260.000000pt" height="260.000000pt" viewBox="0 0 260.000000 260.000000"
 preserveAspectRatio="xMidYMid meet">
<metadata>
Created by potrace 1.11, written by Peter Selinger 2001-2013
</metadata>
<g transform="translate(0.000000,260.000000) scale(0.100000,-0.100000)"
fill="#000000" stroke="none">
<path d="M0 1300 l0 -1300 1300 0 1300 0 0 1300 0 1300 -1300 0 -1300 0 0
-1300z m1474 814 c38 -3 79 -10 90 -14 12 -4 48 -16 81 -26 51 -16 73 -32 158
-113 86 -83 104 -106 143 -186 24 -50 44 -99 44 -108 0 -15 -13 -17 -112 -17
-62 0 -130 4 -150 9 -22 5 -52 5 -76 -2 l-39 -10 -64 65 c-82 84 -142 108
-265 108 -77 0 -92 -3 -144 -31 -71 -38 -112 -79 -112 -113 0 -14 -7 -31 -14
-37 -10 -8 -13 -28 -8 -73 4 -53 2 -66 -16 -88 -13 -17 -20 -41 -20 -68 0 -23
-5 -50 -10 -60 -7 -14 -7 -25 2 -39 9 -15 9 -25 0 -45 -10 -22 -9 -24 5 -19
13 5 15 2 11 -15 -4 -12 -2 -25 3 -28 16 -10 10 -32 -11 -37 -11 -3 -20 -11
-20 -19 0 -10 3 -9 10 2 12 20 29 3 47 -47 17 -49 16 -53 -4 -54 -11 0 -13 -3
-5 -6 6 -2 12 -14 12 -25 0 -11 9 -36 21 -55 22 -35 20 -63 -5 -63 -7 0 -17
-12 -21 -27 -5 -21 -1 -31 17 -45 13 -10 28 -17 33 -17 6 0 0 7 -12 16 -28 19
-29 44 -3 68 20 18 21 18 53 -13 52 -50 151 -91 222 -92 114 0 153 4 148 18
-3 6 2 12 11 12 22 0 113 86 122 114 11 37 34 57 55 46 12 -7 20 -7 24 0 5 8
11 8 20 0 10 -8 19 -8 34 -1 23 13 271 15 271 3 0 -33 -48 -135 -83 -177 -23
-27 -49 -59 -57 -69 -28 -36 -77 -86 -84 -86 -4 0 -28 -17 -54 -39 -72 -59
-162 -110 -233 -131 -82 -25 -266 -27 -354 -4 -33 8 -68 13 -78 10 -25 -6
-112 61 -208 160 -86 90 -103 113 -152 206 -47 88 -78 200 -74 265 2 33 -1 51
-7 50 -32 -6 0 427 39 539 35 101 190 272 305 338 87 49 148 68 250 76 94 7
130 6 264 -6z"/>
<path d="M1430 2089 c0 -5 5 -7 10 -4 6 3 10 8 10 11 0 2 -4 4 -10 4 -5 0 -10
-5 -10 -11z"/>
<path d="M1310 2066 c0 -2 8 -10 18 -17 15 -13 16 -12 3 4 -13 16 -21 21 -21
13z"/>
<path d="M1450 2055 c-11 -13 -11 -18 0 -28 10 -10 12 -9 7 4 -3 9 0 22 6 28
6 6 8 11 5 11 -3 0 -11 -7 -18 -15z"/>
<path d="M1580 2042 c0 -7 -7 -12 -15 -12 -8 0 -15 -4 -15 -10 0 -5 4 -10 9
-10 13 0 35 29 27 37 -3 3 -6 1 -6 -5z"/>
<path d="M1455 1930 c-3 -5 -2 -10 4 -10 5 0 13 5 16 10 3 6 2 10 -4 10 -5 0
-13 -4 -16 -10z"/>
<path d="M970 1921 c0 -9 30 -24 36 -18 2 1 -6 8 -16 15 -11 7 -20 8 -20 3z"/>
<path d="M1500 1920 c-9 -6 -10 -10 -3 -10 6 0 15 5 18 10 8 12 4 12 -15 0z"/>
<path d="M1519 1893 c-13 -16 -12 -17 4 -4 9 7 17 15 17 17 0 8 -8 3 -21 -13z"/>
<path d="M1030 1845 c-11 -13 -10 -14 4 -9 9 3 16 10 16 15 0 13 -6 11 -20 -6z"/>
<path d="M1750 1830 c0 -5 5 -10 10 -10 6 0 10 5 10 10 0 6 -4 10 -10 10 -5 0
-10 -4 -10 -10z"/>
<path d="M945 1810 c-3 -6 1 -7 9 -4 18 7 21 14 7 14 -6 0 -13 -4 -16 -10z"/>
<path d="M1680 1806 c0 -2 8 -10 18 -17 15 -13 16 -12 3 4 -13 16 -21 21 -21
13z"/>
<path d="M936 1765 c4 -8 11 -15 16 -15 6 0 5 6 -2 15 -7 8 -14 15 -16 15 -2
0 -1 -7 2 -15z"/>
<path d="M962 1728 c-8 -10 -4 -13 14 -14 20 -2 23 1 13 12 -14 17 -14 17 -27
2z"/>
<path d="M720 1642 c0 -5 8 -13 18 -17 16 -6 16 -7 -2 -21 -11 -8 -15 -14 -9
-14 11 0 39 29 32 33 -2 1 -12 9 -21 16 -10 7 -18 9 -18 3z"/>
<path d="M905 1629 c-11 -16 -1 -19 13 -3 7 8 8 14 3 14 -5 0 -13 -5 -16 -11z"/>
<path d="M795 1620 c-3 -5 -1 -10 4 -10 6 0 11 5 11 10 0 6 -2 10 -4 10 -3 0
-8 -4 -11 -10z"/>
<path d="M930 1605 c-7 -9 -8 -15 -2 -15 5 0 12 7 16 15 3 8 4 15 2 15 -2 0
-9 -7 -16 -15z"/>
<path d="M810 1585 c-7 -8 -8 -15 -2 -15 5 0 15 7 22 15 7 8 8 15 2 15 -5 0
-15 -7 -22 -15z"/>
<path d="M686 1561 c-4 -5 3 -7 14 -4 23 6 26 -6 8 -26 -11 -11 -9 -12 8 -3
12 6 25 8 30 4 5 -4 0 3 -10 16 -20 23 -41 29 -50 13z"/>
<path d="M925 1559 c-11 -17 1 -21 15 -4 8 9 8 15 2 15 -6 0 -14 -5 -17 -11z"/>
<path d="M915 1500 c-3 -5 -1 -10 4 -10 6 0 11 5 11 10 0 6 -2 10 -4 10 -3 0
-8 -4 -11 -10z"/>
<path d="M704 1489 c-3 -6 1 -18 9 -27 15 -14 15 -13 10 6 -6 24 6 28 27 10
12 -11 12 -10 1 5 -15 19 -37 22 -47 6z"/>
<path d="M635 1469 c-11 -17 1 -21 15 -4 8 9 8 15 2 15 -6 0 -14 -5 -17 -11z"/>
<path d="M762 1416 c7 -8 15 -12 17 -11 5 6 -10 25 -20 25 -5 0 -4 -6 3 -14z"/>
<path d="M634 1368 c2 -24 -2 -46 -8 -50 -7 -5 -4 -8 7 -8 9 0 17 3 18 8 0 4
2 22 3 39 2 18 -2 37 -9 43 -10 9 -12 2 -11 -32z"/>
<path d="M709 1393 c-12 -15 -12 -16 4 -10 10 4 23 7 28 7 6 0 7 5 4 10 -9 15
-21 12 -36 -7z"/>
<path d="M809 1393 c-13 -16 -12 -17 4 -4 9 7 17 15 17 17 0 8 -8 3 -21 -13z"/>
<path d="M736 1346 c10 -8 21 -12 24 -10 5 6 -21 24 -34 24 -6 0 -1 -6 10 -14z"/>
<path d="M778 1353 c6 -2 12 -11 12 -18 0 -7 -6 -15 -12 -18 -10 -3 -10 -7 -1
-19 8 -9 9 -18 3 -24 -7 -7 1 -20 22 -40 26 -23 28 -24 10 -3 -24 28 -29 49
-10 49 9 0 9 3 0 12 -19 19 -14 31 9 25 18 -5 18 -3 7 11 -17 22 -31 32 -43
31 -5 0 -4 -3 3 -6z"/>
<path d="M858 1298 c-10 -10 -14 -18 -9 -18 10 0 36 29 30 34 -2 1 -12 -6 -21
-16z"/>
<path d="M635 1279 c-11 -17 1 -21 15 -4 8 9 8 15 2 15 -6 0 -14 -5 -17 -11z"/>
<path d="M729 1269 c-7 -14 -17 -19 -30 -16 -16 4 -18 3 -9 -8 9 -11 16 -12
31 -2 10 6 19 17 19 24 0 6 6 14 13 16 9 4 9 6 0 6 -7 1 -17 -8 -24 -20z"/>
<path d="M679 1211 c8 -5 11 -18 7 -32 -3 -13 -3 -18 0 -11 7 15 31 16 36 0 2
-6 10 -8 16 -4 16 10 15 27 -1 20 -7 -2 -22 4 -32 16 -10 11 -23 20 -29 20 -6
0 -5 -4 3 -9z"/>
<path d="M800 1192 c0 -18 29 -27 43 -13 9 9 8 11 -7 5 -11 -4 -21 -2 -27 7
-6 10 -9 11 -9 1z"/>
<path d="M770 1174 c0 -6 6 -16 13 -23 10 -11 8 -13 -10 -8 -25 6 -32 -10 -8
-19 8 -3 21 0 28 8 11 11 11 16 -5 32 -10 11 -18 15 -18 10z"/>
<path d="M706 1135 c10 -8 24 -14 29 -14 6 0 1 6 -9 14 -11 8 -24 15 -30 15
-5 0 -1 -7 10 -15z"/>
<path d="M807 1113 c-15 -14 -6 -25 10 -12 13 11 17 11 20 2 3 -7 9 -13 15
-13 6 0 6 6 -2 15 -13 16 -32 19 -43 8z"/>
<path d="M803 1058 c-18 -17 -25 -19 -37 -9 -10 9 -16 9 -21 1 -4 -6 -13 -9
-21 -6 -12 5 -12 2 -2 -17 10 -18 13 -19 16 -5 2 12 12 16 37 15 19 -2 37 -6
41 -10 11 -11 21 -8 27 7 4 10 0 12 -14 9 -21 -6 -25 7 -7 25 7 7 10 12 7 12
-2 0 -14 -10 -26 -22z"/>
<path d="M884 1061 c20 -22 26 -25 26 -13 0 4 -10 13 -22 21 -23 14 -23 14 -4
-8z"/>
<path d="M720 981 c0 -5 7 -12 16 -15 14 -5 15 -4 4 9 -14 17 -20 19 -20 6z"/>
<path d="M910 975 c-11 -13 -10 -14 5 -9 10 4 21 1 26 -7 7 -12 11 -11 26 4
17 17 17 18 0 11 -9 -3 -23 -1 -31 5 -10 9 -16 8 -26 -4z"/>
<path d="M807 973 c-14 -13 -7 -25 8 -13 8 6 20 8 26 4 8 -4 9 -3 5 4 -8 13
-29 16 -39 5z"/>
<path d="M738 922 c9 -10 19 -17 21 -16 6 5 -20 34 -30 34 -5 0 -1 -8 9 -18z"/>
<path d="M836 917 c3 -10 9 -15 12 -12 3 3 0 11 -7 18 -10 9 -11 8 -5 -6z"/>
<path d="M907 897 c3 -4 -1 -14 -7 -22 -20 -24 5 -17 28 8 l21 22 -24 0 c-13
0 -21 -4 -18 -8z"/>
<path d="M1665 899 c-4 -6 -4 -13 -1 -16 3 -4 6 -1 6 6 0 8 8 11 20 8 11 -3
18 -1 14 4 -7 12 -31 11 -39 -2z"/>
<path d="M770 892 c0 -6 5 -14 10 -17 7 -4 7 -12 0 -25 -7 -13 -7 -21 0 -25 8
-5 7 -11 -1 -21 -18 -22 2 -16 28 8 l23 21 28 -24 27 -24 -24 27 c-18 21 -30
26 -48 22 -23 -6 -30 4 -14 22 5 5 1 17 -10 28 -11 11 -19 14 -19 8z"/>
<path d="M855 850 c10 -11 20 -18 23 -15 7 6 -18 35 -31 35 -5 0 -2 -9 8 -20z"/>
<path d="M1040 860 c0 -5 5 -10 10 -10 6 0 10 5 10 10 0 6 -4 10 -10 10 -5 0
-10 -4 -10 -10z"/>
<path d="M920 845 c-10 -12 -10 -15 4 -15 18 0 21 -11 5 -27 -7 -7 -1 -10 20
-9 22 1 27 4 19 14 -15 18 -2 27 17 12 9 -7 18 -10 21 -7 10 10 -34 27 -52 20
-13 -5 -16 -3 -11 10 8 21 -6 22 -23 2z"/>
<path d="M1692 838 c-18 -18 -14 -30 7 -19 10 6 22 7 27 3 5 -4 2 1 -5 11 -16
20 -14 20 -29 5z"/>
<path d="M1091 814 c0 -11 3 -14 6 -6 3 7 2 16 -1 19 -3 4 -6 -2 -5 -13z"/>
<path d="M1570 805 c-8 -9 -8 -15 -2 -15 12 0 26 19 19 26 -2 2 -10 -2 -17
-11z"/>
<path d="M1830 812 c0 -12 19 -26 26 -19 2 2 -2 10 -11 17 -9 8 -15 8 -15 2z"/>
<path d="M1591 778 c-14 -23 -14 -23 8 -4 22 20 25 26 13 26 -4 0 -13 -10 -21
-22z"/>
<path d="M1440 762 c0 -12 19 -26 26 -19 2 2 -2 10 -11 17 -9 8 -15 8 -15 2z"/>
<path d="M1324 731 c20 -22 26 -25 26 -13 0 4 -10 13 -22 21 -23 14 -23 14 -4
-8z"/>
<path d="M1370 735 c11 -14 12 -19 3 -22 -23 -8 -14 -18 17 -18 40 0 58 19 37
39 -11 12 -17 13 -20 3 -3 -9 -10 -9 -28 2 -23 13 -23 13 -9 -4z"/>
<path d="M1565 730 c3 -5 8 -10 11 -10 2 0 4 5 4 10 0 6 -5 10 -11 10 -5 0 -7
-4 -4 -10z"/>
<path d="M1272 684 c10 -10 20 -15 24 -12 3 4 -5 12 -18 18 -22 12 -22 12 -6
-6z"/>
<path d="M1445 689 c-11 -17 1 -21 15 -4 8 9 8 15 2 15 -6 0 -14 -5 -17 -11z"/>
<path d="M1540 666 c0 -2 7 -9 15 -16 9 -7 15 -8 15 -2 0 5 -7 12 -15 16 -8 3
-15 4 -15 2z"/>
<path d="M1542 610 c13 -20 28 -27 28 -12 0 4 -9 13 -20 20 -19 12 -20 11 -8
-8z"/>
</g>
</svg>
